<svg xmlns="http://www.w3.org/2000/svg" xmlns:xlink="http://www.w3.org/1999/xlink">
	<def>
		<symbol id="facebook"  viewBox="0 0 8 13">
			<path  d="M6.91.614L5.354.61c-1.748 0-2.879 1.16-2.879 2.953v1.363H.91a.245.245 0 0 0-.244.245v1.972c0 .135.11.244.244.244h1.565v4.979c0 .135.11.244.246.244h2.04c.136 0 .245-.11.245-.244V7.387h1.83c.135 0 .244-.109.244-.244l.001-1.972a.25.25 0 0 0-.072-.174.246.246 0 0 0-.173-.07h-1.83V3.771c0-.555.132-.838.855-.838H6.91c.136 0 .245-.11.245-.244V.858A.244.244 0 0 0 6.91.614z"/>
		</symbol>
		<symbol id="linkedin" viewBox="0 0 24 24">
			<path d="m23.994 24v-.001h.006v-8.802c0-4.306-.927-7.623-5.961-7.623-2.42 0-4.044 1.328-4.707 2.587h-.07v-2.185h-4.773v16.023h4.97v-7.934c0-2.089.396-4.109 2.983-4.109 2.549 0 2.587 2.384 2.587 4.243v7.801z"/>
			<path d="m.396 7.977h4.976v16.023h-4.976z"/>
			<path d="m2.882 0c-1.591 0-2.882 1.291-2.882 2.882s1.291 2.909 2.882 2.909 2.882-1.318 2.882-2.909c-.001-1.591-1.292-2.882-2.882-2.882z"/>
		</symbol>
		<symbol id="git" viewBox="0 0 496 512">
			<path  d="M165.9 397.4c0 2-2.3 3.6-5.2 3.6-3.3.3-5.6-1.3-5.6-3.6 0-2 2.3-3.6 5.2-3.6 3-.3 5.6 1.3 5.6 3.6zm-31.1-4.5c-.7 2 1.3 4.3 4.3 4.9 2.6 1 5.6 0 6.2-2s-1.3-4.3-4.3-5.2c-2.6-.7-5.5.3-6.2 2.3zm44.2-1.7c-2.9.7-4.9 2.6-4.6 4.9.3 2 2.9 3.3 5.9 2.6 2.9-.7 4.9-2.6 4.6-4.6-.3-1.9-3-3.2-5.9-2.9zM244.8 8C106.1 8 0 113.3 0 252c0 110.9 69.8 205.8 169.5 239.2 12.8 2.3 17.3-5.6 17.3-12.1 0-6.2-.3-40.4-.3-61.4 0 0-70 15-84.7-29.8 0 0-11.4-29.1-27.8-36.6 0 0-22.9-15.7 1.6-15.4 0 0 24.9 2 38.6 25.8 21.9 38.6 58.6 27.5 72.9 20.9 2.3-16 8.8-27.1 16-33.7-55.9-6.2-112.3-14.3-112.3-110.5 0-27.5 7.6-41.3 23.6-58.9-2.6-6.5-11.1-33.3 2.6-67.9 20.9-6.5 69 27 69 27 20-5.6 41.5-8.5 62.8-8.5s42.8 2.9 62.8 8.5c0 0 48.1-33.6 69-27 13.7 34.7 5.2 61.4 2.6 67.9 16 17.7 25.8 31.5 25.8 58.9 0 96.5-58.9 104.2-114.8 110.5 9.2 7.9 17 22.9 17 46.4 0 33.7-.3 75.4-.3 83.6 0 6.5 4.6 14.4 17.3 12.1C428.2 457.8 496 362.9 496 252 496 113.3 383.5 8 244.8 8zM97.2 352.9c-1.3 1-1 3.3.7 5.2 1.6 1.6 3.9 2.3 5.2 1 1.3-1 1-3.3-.7-5.2-1.6-1.6-3.9-2.3-5.2-1zm-10.8-8.1c-.7 1.3.3 2.9 2.3 3.9 1.6 1 3.6.7 4.3-.7.7-1.3-.3-2.9-2.3-3.9-2-.6-3.6-.3-4.3.7zm32.4 35.6c-1.6 1.3-1 4.3 1.3 6.2 2.3 2.3 5.2 2.6 6.5 1 1.3-1.3.7-4.3-1.3-6.2-2.2-2.3-5.2-2.6-6.5-1zm-11.4-14.7c-1.6 1-1.6 3.6 0 5.9 1.6 2.3 4.3 3.3 5.6 2.3 1.6-1.3 1.6-3.9 0-6.2-1.4-2.3-4-3.3-5.6-2z"></path>
			</symbol>
		<symbol id="mouse" viewBox="0 0 9 16">
			<g clip-path="url(#clip-101)">
				<path fill="#231f20" d="M6.109 1.942V1.88a.358.358 0 0 0-.095-.23c-.112-.118-.344-.182-.65-.182-.704 0-.773.32-.776.428l.003.02-.002.001v1.235h.367v.894h.82a2.55 2.55 0 0 1 2.547 2.548v4.8A4.16 4.16 0 0 1 4.17 15.55a4.16 4.16 0 0 1-4.154-4.155V6.594a2.55 2.55 0 0 1 2.548-2.548h.73v-.894h.377V1.923a1.297 1.297 0 0 1 .352-.891c.301-.32.754-.482 1.34-.482.591 0 1.04.163 1.335.487.325.355.333.772.329.892v.014c0 .453.368.821.82.821h.577v.919h-.576c-.96 0-1.74-.781-1.74-1.74zM.934 6.595v1.11H3.67v-2.74H2.564c-.899 0-1.63.731-1.63 1.63zm6.472 4.8V8.623H.934v2.773A3.24 3.24 0 0 0 4.17 14.63a3.24 3.24 0 0 0 3.236-3.236zm-2.818-6.43v2.74h2.818v-1.11c0-.899-.73-1.63-1.63-1.63z"/>
			</g>
		</symbol>
		<symbol id="tools" viewBox="0 0 16 16">
			<g clip-path="url(#clip-103)">
				<path fill="#231f20" d="M15.611 12.908l-2.488 2.487a.44.44 0 0 1-.621 0l-4.301-4.3-2.45 2.45-.001.002c-.008.009-.018.016-.028.024l-.005.006-.032.023-.004.003a6.136 6.136 0 0 1-.037.021 1.455 1.455 0 0 1-.035.017l-.004.001-.031.012-.01.002-.008.003-3.42.932a.442.442 0 0 1-.541-.54l.934-3.42c0-.001 0-.003.002-.005 0-.003.002-.008.004-.011l.008-.025a.027.027 0 0 0 .004-.012c.006-.01.01-.02.015-.031l.006-.011c.004-.009.01-.016.014-.024l.006-.01.021-.03a.708.708 0 0 1 .031-.035h.002l.002-.002 2.448-2.449L.867 3.762a.439.439 0 0 1-.127-.31c0-.117.045-.23.127-.311L3.355.653a.44.44 0 0 1 .621 0l4.225 4.224 2.307-2.305.62-.622a2.186 2.186 0 0 1 1.555-.644c.588 0 1.139.23 1.555.644.416.415.645.967.645 1.554 0 .588-.229 1.14-.645 1.555L11.31 7.986l4.301 4.3a.44.44 0 0 1 0 .622zM11.44 2.883l1.865 1.866.313-.312c.248-.249.385-.58.385-.933a1.314 1.314 0 0 0-1.318-1.319 1.31 1.31 0 0 0-.934.387zM5.715 7.365L7.58 5.499 6.404 4.325l-.478.478a.436.436 0 0 1-.622 0 .439.439 0 0 1 0-.621l.479-.48-.697-.697-.918.919a.44.44 0 0 1-.623-.622l.92-.919-.8-.797L1.802 3.45zm-2.14 3.382l.622.622 7.242-7.242-.62-.623zm1.018 2.262l-1.416-1.415-.529 1.947zm5.786-5.333l2.304-2.306-.62-.621-7.245 7.242.623.622zm4.298 4.921l-.796-.798-.92.92a.438.438 0 0 1-.621 0 .44.44 0 0 1 0-.623l.918-.918-.698-.698-.478.48a.44.44 0 0 1-.621-.623l.478-.479-1.25-1.25-1.865 1.866 3.988 3.989z"/>
			</g>
		</symbol>
		<symbol id="check" viewBox="0 0 19 19">
			<path d="M18.15 9.22a9 9 0 0 1-9 9 9 9 0 0 1-9-9 9 9 0 0 1 9-9 9 9 0 0 1 9 9zm-13.938.514l3.083 3.318a.359.359 0 0 0 .275.117c.12 0 .2-.039.277-.117l6.319-6.557a.383.383 0 0 0 0-.554l-.551-.553a.387.387 0 0 0-.555 0h-.04l-5.292 5.49a.188.188 0 0 1-.275 0l-2.174-2.33-.04-.039a.381.381 0 0 0-.552 0l-.555.553a.426.426 0 0 0-.117.275c0 .08.04.2.117.277z"/>
		</symbol>
		<symbol id="envelope" viewBox="0 0 11 8">
			<path d="M9.46.245c.674 0 1.222.55 1.22 1.224v5.163c0 .674-.549 1.223-1.223 1.223H1.903A1.224 1.224 0 0 1 .68 6.633V1.466C.68.794 1.228.245 1.903.245zm.661 6.388V1.469a.665.665 0 0 0-.664-.664H1.903a.665.665 0 0 0-.664.664v5.163c0 .367.297.665.664.665h7.556a.665.665 0 0 0 .664-.664zm-.678-.315a.28.28 0 0 1 .01.396.275.275 0 0 1-.203.085.277.277 0 0 1-.192-.076L6.57 4.361l-.698.624a.276.276 0 0 1-.372.002l-.678-.606L2.32 6.722a.284.284 0 0 1-.395-.016.281.281 0 0 1 .012-.395l2.465-2.305-2.475-2.214a.278.278 0 0 1-.023-.395.279.279 0 0 1 .395-.022L4.978 3.77c.016.014.031.026.045.04l.004.006.658.588 3.373-3.027a.28.28 0 0 1 .394.02.279.279 0 0 1-.02.395L6.987 3.986z"/>
		</symbol>
		<symbol id="phone" viewBox="0 0 11 11">
			<path d="M10.451 8.28L8.903 6.73c-.308-.306-.818-.296-1.138.022l-.78.78-.153-.084C6.339 7.174 5.665 6.8 4.955 6.09c-.71-.712-1.086-1.388-1.359-1.88a8.352 8.352 0 0 1-.083-.15l.522-.521.258-.26c.32-.32.329-.83.02-1.137L2.766.595C2.459.288 1.948.297 1.627.617l-.435.438.011.012a2.588 2.588 0 0 0-.52 1.276C.48 4.04 1.255 5.587 3.356 7.69c2.905 2.904 5.246 2.684 5.348 2.674a2.587 2.587 0 0 0 1.276-.52l.01.01.442-.434a.809.809 0 0 0 .02-1.14z"/>
		</symbol>
		<symbol id="clock" viewBox="0 0 8 8">>
			<path d="M7.96 4.13c0 2.205-1.795 4-4 4s-4-1.795-4-4 1.795-4 4-4 4 1.795 4 4zm-.852 0A3.152 3.152 0 0 0 3.96.982 3.152 3.152 0 0 0 .812 4.13 3.152 3.152 0 0 0 3.96 7.278 3.152 3.152 0 0 0 7.108 4.13zm-.734.206a.33.33 0 0 1-.329.33H3.918a.33.33 0 0 1-.33-.33V1.845a.33.33 0 0 1 .658 0v2.161h1.799a.33.33 0 0 1 .329.33z"/>
		</symbol>
		<symbol id="briefcase" viewBox="0 0 11 9">
			<path d="M5.3 5.949a.49.49 0 0 1-.49-.49v-.223a.49.49 0 1 1 .98 0v.223c0 .27-.219.49-.49.49zm.827-.22h3.377c.213 0 .414-.05.596-.136v2.243a.8.8 0 0 1-.797.795H1.298A.799.799 0 0 1 .5 7.836V5.593c.181.086.382.135.595.135h3.378a.867.867 0 0 0 .826.617c.391 0 .718-.261.827-.617zm4.173-3.23v1.839a.797.797 0 0 1-.796.795h-3.34a.866.866 0 0 0-.264-.584l-.017-.012a.855.855 0 0 0-.108-.088l-.045-.023a.676.676 0 0 0-.098-.053c-.028-.012-.058-.018-.086-.026-.025-.007-.048-.017-.074-.023a.824.824 0 0 0-.343 0c-.026.006-.05.016-.074.023-.028.008-.058.014-.086.026-.035.013-.066.033-.098.053-.015.007-.031.013-.046.023-.038.025-.073.057-.109.088l-.015.012a.863.863 0 0 0-.265.584h-3.34A.797.797 0 0 1 .3 4.338V2.5c0-.438.374-.795.83-.795h1.91C3.156.984 3.78.429 4.534.429h1.532c.754 0 1.378.555 1.494 1.276H9.47c.456 0 .829.357.829.795zm-3.506-.794a.77.77 0 0 0-.728-.531H4.534a.771.771 0 0 0-.728.53z"/>
		</symbol>
		<symbol id="briefcase-main" viewBox="0 0 15 13">
			<g clip-path="url(#clip-104)">
				<path d="M-.04 12.002v-9.4c0-.298.232-.53.53-.53h4.056V.47c0-.297.232-.53.53-.53h4.78c.297 0 .53.233.53.53v1.59h4.043c.297 0 .531.232.531.528v9.402c0 .297-.234.529-.531.529H.489a.536.536 0 0 1-.529-.517zm5.644-9.93h3.721V1h-3.72zM1.02 6.759h3.527v-.632c0-.297.232-.53.53-.53.296 0 .528.233.528.53v.632h3.721v-.632c0-.297.233-.53.531-.53.297 0 .53.233.53.53v.632h3.5V3.12H9.958c-.037.011-.076.011-.115.011-.04 0-.078 0-.117-.011H5.179c-.04.011-.078.011-.118.011-.037 0-.076 0-.115-.011H1.02zm0 4.701h12.894V7.818h-3.527v.594c0 .298-.233.53-.53.53a.524.524 0 0 1-.53-.53v-.594H5.603v.594c0 .298-.232.53-.529.53a.524.524 0 0 1-.53-.53v-.594H1.02z"/>
			</g>
		</symbol>
		<symbol id="diamond" viewBox="0 0 32 23">
			<path d="M32 7.725L16.002 22.546 0 7.722 5.798-.006h20.404zm-22.039.557l6.041 11.982 6.094-11.982zm11.515-1.274l-5.474-5.477-5.477 5.477zm1.382-.423l2.09-5.315H17.54zM14.46 1.27H7.48l1.743 5.234zM2.481 8.282l11.357 10.52-5.303-10.52zm15.71 10.496L29.518 8.282h-5.992zm11.68-11.77L26.06 1.927l-1.997 5.081zm-27.741 0h5.919L6.228 1.547z"/>
		</symbol>
		<symbol id="speech-bubble" viewBox="0 0 32 32">
			<path d="M5.524 31.281v-7.083C2.004 21.656 0 18.004 0 14.098 0 6.732 7.179.738 15.999.738 24.821.738 32 6.732 32 14.098c0 7.365-7.179 13.357-16.001 13.357a19.08 19.08 0 0 1-3.133-.26zM2.152 14.098c0 3.348 1.84 6.499 5.046 8.643l.479.318v4.561l4.815-2.68.382.072a17.01 17.01 0 0 0 3.125.291c7.635 0 13.849-5.026 13.849-11.205 0-6.18-6.214-11.207-13.849-11.207-7.636 0-13.847 5.027-13.847 11.207z"/>
		</symbol>
		<symbol id="pin" viewBox="0 0 24 33">
			<path d="M12.09 7.714a4.096 4.096 0 0 1 4.09 4.09 4.096 4.096 0 0 1-4.09 4.091 4.096 4.096 0 0 1-4.092-4.092 4.097 4.097 0 0 1 4.092-4.09zm0 7.012c1.609 0 2.921-1.31 2.921-2.923a2.927 2.927 0 0 0-2.921-2.921 2.925 2.925 0 0 0-2.922 2.921 2.924 2.924 0 0 0 2.922 2.923zm7.82-10.743c3.916 3.917 4.404 11.284 1.04 15.768L11.987 32.7l-8.98-12.967C-.342 15.267.146 7.9 4.06 3.983A11.138 11.138 0 0 1 11.987.7c2.993 0 5.807 1.167 7.924 3.283zm.093 15.085c3.052-4.07 2.616-10.724-.92-14.26a9.984 9.984 0 0 0-7.096-2.937 9.985 9.985 0 0 0-7.1 2.937c-3.535 3.536-3.97 10.19-.932 14.243l8.032 11.596z"/>
		</symbol>
		<symbol id="social-svg" viewBox="0 0 32 32">
			<path d="M13.94 20.63a.955.955 0 0 1 1.345 1.354l-.78.774a3.642 3.642 0 0 1-2.571 1.055c-.93 0-1.86-.352-2.569-1.055a3.578 3.578 0 0 1-1.067-2.559c0-.968.379-1.877 1.067-2.56l2.87-2.847c1.783-1.77 3.831-2.025 5.218-.65a.955.955 0 1 1-1.346 1.356c-.815-.81-1.933.059-2.528.65l-2.869 2.845c-.325.323-.503.75-.503 1.206 0 .454.178.883.504 1.204a1.745 1.745 0 0 0 2.448 0zm8.696-11.058a3.579 3.579 0 0 1 1.067 2.558c0 .969-.379 1.877-1.067 2.562l-3.062 3.036c-.946.938-1.94 1.413-2.882 1.413-.768 0-1.502-.317-2.144-.953a.954.954 0 1 1 1.346-1.355c.279.278.935.928 2.336-.46l3.06-3.037c.325-.321.504-.75.504-1.206a1.68 1.68 0 0 0-.504-1.203c-.61-.606-1.544-.9-2.258-.192l-.972.964a.954.954 0 0 1-1.345-1.352l.972-.965c1.378-1.368 3.46-1.288 4.949.19zM16 32.11c-8.822 0-16-7.177-16-16C0 7.287 7.178.11 16 .11s16 7.177 16 16c0 8.822-7.178 16-16 16zm0-30.475c-7.981 0-14.476 6.494-14.476 14.475 0 7.983 6.495 14.477 14.476 14.477 7.982 0 14.476-6.494 14.476-14.477 0-7.98-6.494-14.475-14.476-14.475z"/>
		</symbol>
		<symbol id="container-svg" viewBox="0 0 30 26">
			<path d="M23.365 19.325c1.394-1.764 6.616-6.091 6.616-6.091s-5.223-4.33-6.617-6.095c-1.638-2.072-3.294-4.149-5.708-5.255l-.017-.015v.007a12.43 12.43 0 0 0-5.17-1.13C5.572.746-.02 6.336-.02 13.234c0 6.896 5.591 12.486 12.488 12.486 1.847 0 3.594-.41 5.17-1.13v.005l.013-.01c2.417-1.107 4.073-3.186 5.713-5.26z"/>
		</symbol>
		<symbol id="shape" viewBox="0 0 10 6">
			<path d="M9.02 4.5c.125.25.213.76.213.907a.35.35 0 0 1-.35.352.351.351 0 0 1-.35-.352c0-.146.088-.658.213-.907a.351.351 0 1 1-.016-.638V1.815L4.619 3.433a.267.267 0 0 1-.19 0L.008 1.696a.067.067 0 0 1-.042-.063c0-.027.018-.052.044-.061L4.435-.004c.057-.02.12-.02.175 0l4.425 1.576c.025.01.043.034.043.061a.064.064 0 0 1-.042.063v2.165a.35.35 0 0 1-.016.639zm-4.593-.736a.257.257 0 0 0 .19 0L7.654 2.57l-.001 1.18c0 .931-1.386 1.687-3.13 1.735-1.742-.048-3.129-.804-3.129-1.734V2.57z"/>
		</symbol>
		<symbol id="arrow" viewBox="0 0 11 8">
			<path d="M.226 3.846c-.2.199-.2.519 0 .716l3.24 3.24a.5.5 0 0 0 .715 0 .507.507 0 0 0 0-.715L1.806 4.71h8.652a.505.505 0 1 0 0-1.013H1.806L4.18 1.322a.507.507 0 0 0-.715-.716l-3.24 3.24z"/>
		</symbol>
		<symbol id="triangle" viewBox="0 0 320 512">
			<path  d="M288.662 352H31.338c-17.818 0-26.741-21.543-14.142-34.142l128.662-128.662c7.81-7.81 20.474-7.81 28.284 0l128.662 128.662c12.6 12.599 3.676 34.142-14.142 34.142z"></path>
		</symbol>
    <symbol id="rss" viewBox="0 0 552.8 205.3">
      <style>.st0{fill:#fff}.st1{clip-path:url(#SVGID_2_)}.st2{clip-path:url(#SVGID_4_)}.st3{clip-path:url(#SVGID_6_)}.st4{clip-path:url(#SVGID_8_)}.st5{fill:#fff;stroke:#000;stroke-width:4;stroke-miterlimit:10}.st6{clip-path:url(#SVGID_8_)}.st6,.st7{fill:none;stroke:#000;stroke-width:4;stroke-miterlimit:10}.st8,.st9{clip-path:url(#SVGID_10_)}.st9{fill:none;stroke:#000;stroke-width:4;stroke-miterlimit:10}</style><title>rs_school_js</title><path d="M285.4 68l26.3-1.7c.6 4.3 1.7 7.5 3.5 9.8 2.9 3.6 6.9 5.4 12.2 5.4 3.9 0 7-.9 9.1-2.8 2-1.5 3.2-3.9 3.2-6.4 0-2.4-1.1-4.7-3-6.2-2-1.8-6.7-3.6-14.1-5.2-12.1-2.7-20.8-6.3-25.9-10.9-5.1-4.3-8-10.6-7.8-17.3 0-4.6 1.4-9.2 4-13 3-4.3 7.1-7.7 12-9.6 5.3-2.3 12.7-3.5 22-3.5 11.4 0 20.1 2.1 26.1 6.4 6 4.2 9.6 11 10.7 20.3l-26 1.5c-.7-4-2.1-6.9-4.4-8.8s-5.3-2.8-9.2-2.8c-3.2 0-5.6.7-7.2 2-1.5 1.2-2.5 3-2.4 5 0 1.5.8 2.9 2 3.8 1.3 1.2 4.4 2.3 9.3 3.3 12.1 2.6 20.7 5.2 26 7.9 5.3 2.7 9.1 6 11.4 9.9 2.4 4 3.6 8.6 3.5 13.3 0 5.6-1.6 11.2-4.8 15.9-3.3 4.9-7.9 8.7-13.3 11-5.7 2.5-12.9 3.8-21.5 3.8-15.2 0-25.7-2.9-31.6-8.8S286.1 77 285.4 68zM6.3 97.6V8.2h46.1c8.5 0 15.1.7 19.6 2.2 4.4 1.4 8.3 4.3 10.9 8.2 2.9 4.3 4.3 9.3 4.2 14.5.3 8.8-4.2 17.2-11.9 21.6-3 1.7-6.3 2.9-9.7 3.5 2.5.7 5 1.9 7.2 3.3 1.7 1.4 3.1 3 4.4 4.7 1.5 1.7 2.8 3.6 3.9 5.6l13.4 25.9H63L48.2 70.2c-1.9-3.5-3.5-5.8-5-6.9-2-1.4-4.4-2.1-6.8-2.1H34v36.3H6.3zM34 44.4h11.7c2.5-.2 4.9-.6 7.3-1.2 1.8-.3 3.4-1.3 4.5-2.8 2.7-3.6 2.3-8.7-1-11.8-1.8-1.5-5.3-2.3-10.3-2.3H34v18.1zM0 174.2l26.3-1.7c.6 4.3 1.7 7.5 3.5 9.8 2.8 3.6 6.9 5.5 12.2 5.5 3.9 0 7-.9 9.1-2.8 2-1.6 3.2-3.9 3.2-6.4 0-2.4-1.1-4.7-3-6.2-2-1.8-6.7-3.6-14.2-5.2-12.1-2.7-20.8-6.3-25.9-10.9-5.1-4.3-8-10.6-7.8-17.3 0-4.6 1.4-9.2 4-13 3-4.3 7.1-7.7 12-9.6 5.3-2.3 12.7-3.5 22-3.5 11.4 0 20.1 2.1 26.1 6.4s9.5 11 10.6 20.3l-26 1.5c-.7-4-2.1-6.9-4.4-8.8-2.2-1.9-5.3-2.8-9.2-2.7-3.2 0-5.6.7-7.2 2.1-1.6 1.2-2.5 3-2.4 5 0 1.5.8 2.9 2 3.8 1.3 1.2 4.4 2.3 9.3 3.3 12.1 2.6 20.7 5.2 26 7.9 5.3 2.7 9.1 6 11.4 9.9 2.4 4 3.6 8.6 3.6 13.2 0 5.6-1.7 11.1-4.8 15.8-3.3 4.9-7.9 8.7-13.3 11-5.7 2.5-12.9 3.8-21.5 3.8-15.2 0-25.7-2.9-31.6-8.8-5.9-6-9.2-13.4-10-22.4z"/><path d="M133 167.2l24.2 7.3c-1.3 6.1-4 11.9-7.7 17-3.4 4.5-7.9 8-13 10.3-5.2 2.3-11.8 3.5-19.8 3.5-9.7 0-17.7-1.4-23.8-4.2-6.2-2.8-11.5-7.8-16-14.9-4.5-7.1-6.7-16.2-6.7-27.3 0-14.8 3.9-26.2 11.8-34.1s19-11.9 33.4-11.9c11.3 0 20.1 2.3 26.6 6.8 6.4 4.6 11.2 11.6 14.4 21l-24.4 5.4c-.6-2.1-1.5-4.2-2.7-6-1.5-2.1-3.4-3.7-5.7-4.9-2.3-1.2-4.9-1.7-7.5-1.7-6.3 0-11.1 2.5-14.4 7.6-2.5 3.7-3.8 9.6-3.8 17.6 0 9.9 1.5 16.7 4.5 20.4 3 3.7 7.2 5.5 12.7 5.5 5.3 0 9.3-1.5 12-4.4 2.7-3.1 4.7-7.4 5.9-13zm56.5-52.8h27.6v31.3h30.2v-31.3h27.8v89.4h-27.8v-36.2h-30.2v36.2h-27.6v-89.4z"/><path d="M271.3 159.1c0-14.6 4.1-26 12.2-34.1 8.1-8.1 19.5-12.2 34-12.2 14.9 0 26.3 4 34.4 12S364 144 364 158.4c0 10.5-1.8 19-5.3 25.7-3.4 6.6-8.7 12-15.2 15.6-6.7 3.7-15 5.6-24.9 5.6-10.1 0-18.4-1.6-25-4.8-6.8-3.4-12.4-8.7-16.1-15.2-4.1-7-6.2-15.7-6.2-26.2zm27.6.1c0 9 1.7 15.5 5 19.5 3.3 3.9 7.9 5.9 13.7 5.9 5.9 0 10.5-1.9 13.8-5.8s4.9-10.8 4.9-20.8c0-8.4-1.7-14.6-5.1-18.4-3.4-3.9-8-5.8-13.8-5.8-5.1-.2-10 2-13.4 5.9-3.4 3.9-5.1 10.4-5.1 19.5zm93.4-.1c0-14.6 4.1-26 12.2-34.1 8.1-8.1 19.5-12.2 34-12.2 14.9 0 26.4 4 34.4 12S485 144 485 158.4c0 10.5-1.8 19-5.3 25.7-3.4 6.6-8.7 12-15.2 15.6-6.7 3.7-15 5.6-24.9 5.6-10.1 0-18.4-1.6-25-4.8-6.8-3.4-12.4-8.7-16.1-15.2-4.1-7-6.2-15.7-6.2-26.2zm27.6.1c0 9 1.7 15.5 5 19.5 3.3 3.9 7.9 5.9 13.7 5.9 5.9 0 10.5-1.9 13.8-5.8 3.3-3.9 4.9-10.8 4.9-20.8 0-8.4-1.7-14.6-5.1-18.4-3.4-3.9-8-5.8-13.8-5.8-5.1-.2-10.1 2-13.4 5.9-3.4 3.9-5.1 10.4-5.1 19.5z"/><path d="M482.1 114.4h27.6v67.4h43.1v22H482v-89.4z"/><ellipse transform="rotate(-37.001 420.46 67.88)" class="st0" cx="420.5" cy="67.9" rx="63" ry="51.8"/><defs><ellipse id="SVGID_1_" transform="rotate(-37.001 420.46 67.88)" cx="420.5" cy="67.9" rx="63" ry="51.8"/></defs><clipPath id="SVGID_2_"><use xlink:href="#SVGID_1_" overflow="visible"/></clipPath><g class="st1"><path transform="rotate(-37.001 420.82 68.353)" class="st0" d="M330.9-14.2h179.8v165.1H330.9z"/><g id="Layer_2_1_"><defs><path id="SVGID_3_" transform="rotate(-37.001 420.82 68.353)" d="M330.9-14.2h179.8v165.1H330.9z"/></defs><clipPath id="SVGID_4_"><use xlink:href="#SVGID_3_" overflow="visible"/></clipPath><g id="Layer_1-2" class="st2"><ellipse transform="rotate(-37.001 420.46 67.88)" class="st0" cx="420.5" cy="67.9" rx="63" ry="51.8"/><defs><ellipse id="SVGID_5_" transform="rotate(-37.001 420.46 67.88)" cx="420.5" cy="67.9" rx="63" ry="51.8"/></defs><clipPath id="SVGID_6_"><use xlink:href="#SVGID_5_" overflow="visible"/></clipPath><g class="st3"><path transform="rotate(-37 420.799 68.802)" class="st0" d="M357.8 17h125.9v103.7H357.8z"/><defs><path id="SVGID_7_" transform="rotate(-37 420.799 68.802)" d="M357.8 17h125.9v103.7H357.8z"/></defs><clipPath id="SVGID_8_"><use xlink:href="#SVGID_7_" overflow="visible"/></clipPath><g class="st4"><ellipse transform="rotate(-37.001 420.46 67.88)" class="st5" cx="420.5" cy="67.9" rx="63" ry="51.8"/></g><path transform="rotate(-37 420.799 68.802)" class="st6" d="M357.8 17h125.9v103.7H357.8z"/><ellipse transform="rotate(-37.001 420.46 67.88)" class="st7" cx="420.5" cy="67.9" rx="63" ry="51.8"/><path transform="rotate(-37 420.799 68.802)" class="st0" d="M357.8 17h125.9v103.7H357.8z"/><defs><path id="SVGID_9_" transform="rotate(-37 420.799 68.802)" d="M357.8 17h125.9v103.7H357.8z"/></defs><clipPath id="SVGID_10_"><use xlink:href="#SVGID_9_" overflow="visible"/></clipPath><g class="st8"><ellipse transform="rotate(-37.001 420.46 67.88)" class="st5" cx="420.5" cy="67.9" rx="63" ry="51.8"/></g><path transform="rotate(-37 420.799 68.802)" class="st9" d="M357.8 17h125.9v103.7H357.8z"/><path transform="rotate(-37.001 420.82 68.353)" class="st7" d="M330.9-14.2h179.8v165.1H330.9z"/></g><ellipse transform="rotate(-37.001 420.46 67.88)" class="st7" cx="420.5" cy="67.9" rx="63" ry="51.8"/><path d="M392.4 61.3l10-7 12.3 17.5c2.1 2.8 3.7 5.8 4.9 9.1.7 2.5.5 5.2-.5 7.6-1.3 3-3.4 5.5-6.2 7.3-3.3 2.3-6.1 3.6-8.5 4-2.3.4-4.7 0-6.9-1-2.4-1.2-4.5-2.9-6.1-5.1l8.6-8c.7 1.1 1.6 2.1 2.6 2.9.7.5 1.5.8 2.4.8.7 0 1.4-.3 1.9-.7 1-.6 1.7-1.8 1.6-3-.3-1.7-1-3.4-2.1-4.7l-14-19.7zm30 11.1l9.1-7.2c1 1.2 2.3 2.1 3.7 2.6 2 .6 4.1.2 5.8-1.1 1.2-.8 2.2-1.9 2.6-3.3.6-1.8-.4-3.8-2.2-4.4-.3-.1-.6-.2-.9-.2-1.2-.1-3.3.4-6.4 1.7-5.1 2.1-9.1 2.9-12.1 2.6-2.9-.3-5.6-1.8-7.2-4.3-1.2-1.7-1.8-3.7-1.9-5.7 0-2.3.6-4.6 1.9-6.5 1.9-2.7 4.2-5 7-6.8 4.2-2.9 7.9-4.3 11.1-4.3 3.2 0 6.2 1.5 9 4.6l-9 7.1c-1.8-2.3-5.2-2.8-7.5-1l-.3.3c-1 .6-1.7 1.5-2.1 2.6-.3.8-.1 1.7.4 2.4.4.5 1 .9 1.7.9.8.1 2.2-.3 4.2-1.2 5-2.1 8.8-3.3 11.4-3.7 2.2-.4 4.5-.2 6.6.7 1.9.8 3.5 2.2 4.6 3.9 1.4 2 2.2 4.4 2.3 6.9.1 2.6-.6 5.1-2 7.3-1.8 2.7-4.1 5-6.8 6.8-5.5 3.8-10 5.4-13.6 4.8-3.9-.6-7.1-2.6-9.4-5.5z"/></g></g></g>
		</symbol>
	</def>
</svg>